<?xml version="1.0" encoding="utf-8"?>
<svg xmlns="http://www.w3.org/2000/svg" viewBox="0 0 24 24" fill="#767676"><path d="M 4 4 C 2.895 4 2 4.895 2 6 L 2 18 C 2 19.105 2.895 20 4 20 L 11.294922 20 C 11.105922 19.366 11 18.695 11 18 L 4 18 L 4 8.0019531 L 12 13 L 20 8.0019531 L 20 11.294922 C 20.723 11.509922 21.396 11.837766 22 12.259766 L 22 6 C 22 4.895 21.105 4 20 4 L 4 4 z M 4 6 L 20 6 L 20 6.0019531 L 12 11 L 4 6.0019531 L 4 6 z M 18 13 C 15.2 13 13 15.2 13 18 C 13 20.8 15.2 23 18 23 C 19 23 20.000781 22.699219 20.800781 22.199219 L 22.599609 24 L 24 22.599609 L 22.199219 20.800781 C 22.699219 20.000781 23 19 23 18 C 23 15.2 20.8 13 18 13 z M 18 15 C 19.7 15 21 16.3 21 18 C 21 19.7 19.7 21 18 21 C 16.3 21 15 19.7 15 18 C 15 16.3 16.3 15 18 15 z" fill="#767676"/></svg>
